<svg xmlns="http://www.w3.org/2000/svg" fill="none" viewBox="0 0 109 29"><path fill="#fff" d="M49.852 9.588V6.545h14.336v3.043h-5.344V24h-3.648V9.588zm17.62 14.66q-1.253 0-2.233-.436a3.6 3.6 0 0 1-1.551-1.303q-.563-.87-.563-2.165 0-1.091.4-1.833.401-.741 1.092-1.193a5.3 5.3 0 0 1 1.568-.682q.885-.23 1.858-.323 1.142-.12 1.84-.222.7-.111 1.015-.324t.315-.63v-.052q0-.81-.511-1.253-.503-.443-1.432-.443-.98 0-1.56.435a2 2 0 0 0-.767 1.074l-3.357-.273a4.56 4.56 0 0 1 1.005-2.062q.75-.879 1.935-1.347 1.193-.477 2.761-.477 1.09 0 2.088.255 1.005.256 1.781.793.785.537 1.236 1.38.452.835.452 2.004V24h-3.443v-1.815h-.102q-.316.614-.844 1.082a3.9 3.9 0 0 1-1.27.724q-.741.255-1.713.256m1.04-2.507q.8 0 1.414-.315.614-.323.963-.87a2.24 2.24 0 0 0 .35-1.235v-1.39q-.17.112-.469.205-.29.085-.656.162-.367.069-.733.128l-.665.094a4.5 4.5 0 0 0-1.116.298 1.8 1.8 0 0 0-.742.554q-.264.341-.264.852 0 .743.537 1.134.546.383 1.38.383M76.7 24V10.91h3.63V24zm1.824-14.778q-.81 0-1.39-.537-.57-.546-.57-1.304 0-.75.57-1.287.58-.546 1.39-.546t1.38.546q.58.537.58 1.287 0 .758-.58 1.304-.57.537-1.38.537m3.755 19.687v-18h3.58v2.199h.161q.24-.528.69-1.074.46-.555 1.194-.92.742-.375 1.84-.375 1.433 0 2.643.75 1.21.741 1.934 2.241.725 1.492.725 3.742 0 2.19-.707 3.698-.7 1.5-1.91 2.276-1.201.767-2.693.767-1.056 0-1.798-.35a3.7 3.7 0 0 1-1.202-.877 4.5 4.5 0 0 1-.716-1.083h-.11v7.006zm3.554-11.454q0 1.167.324 2.037.324.868.937 1.355.614.477 1.492.477.885 0 1.5-.486.613-.494.929-1.364.323-.877.323-2.02 0-1.133-.315-1.994t-.929-1.346-1.508-.486q-.886 0-1.5.469-.605.468-.93 1.33-.323.86-.323 2.027m12.493 11.454a7 7 0 0 1-1.296-.11 4.7 4.7 0 0 1-.988-.265l.818-2.71q.64.196 1.15.213.52.017.895-.239.383-.255.623-.869l.213-.554-4.696-13.466h3.818l2.71 9.614h.136l2.736-9.614h3.844l-5.088 14.506a6.1 6.1 0 0 1-.997 1.84 4.1 4.1 0 0 1-1.577 1.22q-.954.434-2.301.434"/><path fill="#FF371A" d="M2.425 1.071A1.6 1.6 0 0 1 3.935 0h35.137a.8.8 0 0 1 .755 1.064L37.776 6.93A1.6 1.6 0 0 1 36.265 8H1.128a.8.8 0 0 1-.756-1.064zM10.425 11.071A1.6 1.6 0 0 1 11.935 10h13.737a.8.8 0 0 1 .755 1.064l-2.052 5.865A1.6 1.6 0 0 1 22.865 18H9.128a.8.8 0 0 1-.755-1.064zM14.87 21.071A1.6 1.6 0 0 1 16.38 20h5.738a.8.8 0 0 1 .755 1.064L20.82 26.93A1.6 1.6 0 0 1 19.31 28h-5.737a.8.8 0 0 1-.755-1.064z"/></svg>